<svg width="488" height="351" viewBox="0 0 488 351" fill="none" xmlns="http://www.w3.org/2000/svg">
<path d="M43.4451 349.59C43.4451 349.59 -39.2828 279.01 23.6058 212.115C90.5619 140.894 31.2413 49.4624 122.131 12.5711C178.74 -10.4059 211.13 3.168 236.283 16.7455C254.788 26.7321 269.378 36.7206 286.816 32.1482C368.867 10.633 472.943 21.2287 455.624 125.73C433.886 256.91 523.07 240.178 470.101 350.028L43.4451 349.59Z" fill="#EBF3FA"/>
<path d="M286.817 137.02C286.817 137.02 300.546 78.8705 346.867 72.4768C346.867 72.4768 355.881 71.3701 358.883 81.2861C361.882 91.202 343.965 91.2738 332.887 95.2622C321.812 99.2506 295.988 116.16 286.817 137.02Z" fill="#D2E0FF"/>
<path d="M285.764 126.136C285.764 126.136 280.949 77.9713 314.752 60.8752C314.752 60.8752 321.365 57.6544 326.28 64.4615C331.194 71.2686 317.483 76.0417 310.051 82.0134C302.616 87.9874 287.289 107.74 285.764 126.136Z" fill="#D2E0FF"/>
<path d="M155.147 187.079C151.569 187.079 148.133 186.758 145.31 186.178C134.979 184.061 139.482 181.149 145.045 176.424C150.255 171.998 160.807 172.81 164.956 171.41V186.224C161.805 186.81 158.418 187.079 155.147 187.079ZM134.954 176.424C124.235 176.424 116.171 156.534 116.171 156.534C117.756 157.024 119.602 157.236 121.536 157.236C128.975 157.236 137.737 154.135 138.157 152.034C138.687 149.387 118.29 149.651 115.111 148.858C111.932 148.064 106.369 141.711 109.813 129.006C111.932 121.188 120.873 119.684 127.437 119.684C131.539 119.684 134.714 120.272 134.714 120.272C134.714 120.272 149.284 142.504 153.522 143.034C153.573 143.042 153.62 143.044 153.667 143.044C157.451 143.042 144.78 121.595 144.78 121.595C145.092 121.564 145.421 121.55 145.769 121.55C150.618 121.55 158.695 124.389 164.956 126.931V153.691C146.432 141.654 119.614 132.977 119.614 132.977C142.127 142.075 156.213 150.048 164.956 156.69V168.477C163.661 168.074 161.779 167.824 159.581 167.824C158.832 167.824 158.043 167.852 157.231 167.916C150.343 168.445 146.899 175.327 135.773 176.385C135.498 176.412 135.226 176.424 134.954 176.424Z" fill="#BACDFE"/>
<path d="M164.956 156.691C156.213 150.048 142.127 142.075 119.614 132.977C119.614 132.977 146.432 141.654 164.956 153.691V156.691Z" fill="#BACDFE"/>
<path d="M121.206 329.533C105.71 329.533 87.5652 320.825 87.5652 320.825C100.72 314.682 113.966 292.307 111.455 288.129C111.263 287.81 110.929 287.661 110.472 287.661C104.955 287.661 81.63 309.277 76.8182 311.861C75.6434 312.492 73.9648 312.893 71.9426 312.893C64.9957 312.893 54.0102 308.162 45.6083 291.782C34.7606 270.636 68.2405 249.893 68.2405 249.893C68.2405 249.893 101.357 258.449 115.477 258.447C118.086 258.447 120.048 258.154 121.031 257.462C127.334 253.025 83.2917 239.444 83.2917 239.444C93.2924 228.416 133.466 216.444 133.466 216.444C133.466 216.444 151.05 237.856 161.467 245.109C161.97 245.653 162.496 246.182 163.044 246.697C163.665 247.281 164.302 247.834 164.956 248.359V256.09C123.506 258.066 63.5236 285.189 63.5236 285.189C112.984 266.937 144.181 261.306 163.856 261.306C164.227 261.306 164.593 261.308 164.956 261.312V278.813C162.343 280.445 159.261 282.974 156.233 286.186C147.679 295.252 151.447 308.622 137.877 323.54C133.843 327.974 127.763 329.533 121.206 329.533ZM152.591 329.057C147.508 329.057 149.107 321.637 150.306 312.337C151.408 303.784 159.111 295.482 164.956 288.898V323.522C164.131 324.061 163.316 324.57 162.518 325.042C157.801 327.84 154.648 329.057 152.591 329.057ZM153.149 226.609C146.502 220.803 140.254 216.09 140.254 216.09C144.67 213.976 149.905 212.913 154.952 212.439C153.276 216.996 152.679 221.849 153.149 226.609Z" fill="#DEE9FD"/>
<path d="M63.5236 285.189C63.5236 285.189 123.505 258.066 164.956 256.09V261.312C164.593 261.308 164.227 261.306 163.856 261.306C144.181 261.306 112.984 266.937 63.5236 285.189Z" fill="#DEE9FD"/>
<path d="M334.857 265.008C334.857 265.008 338.691 241.707 356.702 245.415C356.702 245.415 368.372 249.373 373.508 256.278C373.508 256.278 350.036 260.097 351.019 264.418C351.999 268.738 376.865 258.278 376.865 258.278C376.865 258.278 394.083 275.126 396.21 283.414C396.21 283.414 370.168 278.524 372.183 282.468C374.198 286.414 401.062 292.761 401.062 292.761C401.062 292.761 412.522 312.278 401.332 320.128C390.142 327.974 381.973 324.796 380.073 321.977C378.173 319.159 371.223 299.177 368.823 300.63C366.426 302.083 367.159 317.01 372.203 323.658C372.203 323.658 348.786 322.783 345.885 311.562C342.985 300.339 348.492 294.55 346.572 287.647C344.655 280.744 341.068 276.493 340.476 280.504C339.884 284.517 345.219 295.441 342.571 302.535C339.921 309.629 338.671 315.05 332.951 305.726C327.231 296.401 321.971 277.853 328.415 271.43C334.857 265.008 334.857 265.008 334.857 265.008Z" fill="#BBD0FF"/>
<path d="M393.991 311.973C393.991 311.973 356.749 264.096 334.857 265.007C334.857 265.007 326.161 268.447 314.116 266.672L310.237 268.074C310.237 268.074 325.479 268.986 328.414 271.43C328.414 271.43 341.074 253.117 393.991 311.973Z" fill="#BBD0FF"/>
<path d="M314.117 266.672C314.117 266.672 298.371 262.907 284.626 273.277L285.985 275.219C285.985 275.219 302.271 266.963 312.43 268.234C322.59 269.508 314.117 266.672 314.117 266.672Z" fill="#BBD0FF"/>
<path d="M327.854 168.507C327.854 168.507 303.57 154.918 314.905 136.476C314.905 136.476 323.972 125.152 333.684 122.24C333.684 122.24 328.502 149.741 333.684 150.388C338.865 151.036 337.245 119.328 337.245 119.328C337.245 119.328 362.826 107.034 372.865 108.005C372.865 108.005 356.999 134.859 362.181 134.211C367.362 133.564 385.172 106.387 385.172 106.387C385.172 106.387 411.4 101.534 415.609 117.064C419.819 132.594 413.017 140.359 409.132 141.329C405.247 142.3 380.314 141.977 380.962 145.212C381.61 148.447 398.445 153.624 407.836 150.712C407.836 150.712 397.476 176.272 383.876 174.978C370.275 173.684 366.066 165.271 357.647 164.624C349.228 163.978 343.075 166.242 347.284 168.507C351.494 170.772 365.742 169.249 372.541 175.025C379.342 180.802 384.848 184.361 372.219 186.949C359.588 189.538 336.921 187.92 332.388 178.213C327.854 168.507 327.854 168.507 327.854 168.507Z" fill="#D2E0FF"/>
<path d="M403.628 121.916C403.628 121.916 335.629 143.917 327.857 168.507C327.857 168.507 328.179 179.507 321.383 192.126V196.978C321.383 196.978 328.503 180.478 332.389 178.213C332.389 178.213 317.173 156.859 403.628 121.916Z" fill="#D2E0FF"/>
<path d="M321.381 192.127C321.381 192.127 310.893 208.038 316.871 227.405L319.57 226.683C319.57 226.683 316.951 205.348 322.439 194.62C327.924 183.889 321.381 192.127 321.381 192.127Z" fill="#D2E0FF"/>
<path d="M346.482 349.254H164.956V101.219H346.482V349.254Z" fill="#739AF0"/>
<path d="M338.747 342.421H172.691V107.91H338.747V342.421Z" fill="#F3FAFF"/>
<path d="M221.292 101.219V109.668C221.292 114.335 225.073 118.117 229.739 118.117H275.118C279.785 118.117 283.566 114.335 283.566 109.668V101.219H221.292Z" fill="#2B478B"/>
<path d="M212.512 311.304H191.966V309.226H212.512V311.304Z" fill="#AEC3FF"/>
<path d="M237.816 311.304H217.27V309.226H237.816V311.304Z" fill="#AEC3FF"/>
<path d="M220.459 315.915H191.966V313.837H220.459V315.915Z" fill="#AEC3FF"/>
<path d="M293.518 193.642H320.723V166.46H293.518V193.642ZM322.138 195.054H292.105V165.046H322.138V195.054Z" fill="#AFCDFB"/>
<path d="M307.868 189.022C307.239 189.022 306.639 188.743 306.232 188.253L296.965 177.052C296.219 176.148 296.346 174.812 297.248 174.066C298.151 173.32 299.488 173.447 300.237 174.35L307.588 183.234L320.883 160.935C321.484 159.929 322.784 159.6 323.792 160.199C324.799 160.799 325.129 162.1 324.528 163.106L309.692 187.988C309.339 188.58 308.72 188.963 308.032 189.016C307.976 189.02 307.922 189.022 307.868 189.022Z" fill="#32A852"/>
<path d="M268.928 172.403H202.209V169.476H268.928V172.403Z" fill="#AEC3FF"/>
<path d="M263.696 185.48H202.209V182.553H263.696V185.48Z" fill="#AEC3FF"/>
<path d="M268.928 178.941H250.74V176.015H268.928V178.941Z" fill="#AEC3FF"/>
<path d="M245.7 178.941H202.209V176.015H245.7V178.941Z" fill="#AEC3FF"/>
<path d="M187.272 172.093L184.288 172.922L183.671 170.555L188.125 169.135H190.162V185.822H187.272V172.093Z" fill="#AEC3FF"/>
<path d="M192.07 184.767C192.07 184.185 192.543 183.713 193.125 183.713C193.708 183.713 194.18 184.185 194.18 184.767C194.18 185.35 193.708 185.822 193.125 185.822C192.543 185.822 192.07 185.35 192.07 184.767Z" fill="#AEC3FF"/>
<path d="M293.754 238.469H320.957V211.287H293.754V238.469ZM322.371 239.883H292.338V209.873H322.371V239.883Z" fill="#AFCDFB"/>
<path d="M308.096 233.852C307.467 233.852 306.868 233.571 306.463 233.083L297.196 221.88C296.45 220.977 296.576 219.642 297.479 218.895C298.382 218.15 299.718 218.276 300.467 219.178L307.816 228.063L321.112 205.765C321.713 204.758 323.014 204.43 324.022 205.029C325.028 205.627 325.358 206.929 324.757 207.935L309.921 232.816C309.568 233.409 308.948 233.793 308.26 233.846C308.206 233.85 308.153 233.852 308.096 233.852Z" fill="#32A852"/>
<path d="M183.543 228.369L189.211 223.55C191.469 221.648 192.294 220.589 192.294 219.11C192.294 217.488 191.141 216.546 189.634 216.546C188.129 216.546 187.094 217.37 185.824 219.014L183.779 217.417C185.353 215.207 186.907 213.961 189.846 213.961C193.07 213.961 195.28 215.935 195.28 218.921C195.28 221.507 193.893 222.893 190.999 225.29L187.612 228.111H195.445V230.651H183.543V228.369Z" fill="#AEC3FF"/>
<path d="M197.404 229.602C197.404 229.025 197.873 228.556 198.451 228.556C199.029 228.556 199.5 229.025 199.5 229.602C199.5 230.18 199.029 230.651 198.451 230.651C197.873 230.651 197.404 230.18 197.404 229.602Z" fill="#AEC3FF"/>
<path d="M202.76 217.232H272.871V214.303H202.76V217.232Z" fill="#AEC3FF"/>
<path d="M202.76 230.309H267.374V227.38H202.76V230.309Z" fill="#AEC3FF"/>
<path d="M272.871 223.77H253.759V220.842H272.871V223.77Z" fill="#AEC3FF"/>
<path d="M202.76 223.77H248.463V220.842H202.76V223.77Z" fill="#AEC3FF"/>
<path d="M293.754 283.628H320.957V256.446H293.754V283.628ZM322.371 285.042H292.338V255.032H322.371V285.042Z" fill="#AFCDFB"/>
<path d="M308.096 279.011C307.467 279.011 306.868 278.73 306.463 278.241L297.196 267.039C296.45 266.135 296.576 264.8 297.479 264.054C298.382 263.309 299.718 263.435 300.467 264.336L307.816 273.221L321.112 250.924C321.713 249.916 323.014 249.589 324.022 250.187C325.028 250.785 325.358 252.088 324.757 253.093L309.921 277.975C309.568 278.567 308.948 278.952 308.26 279.005C308.206 279.009 308.153 279.011 308.096 279.011Z" fill="#32A852"/>
<path d="M272.871 262.39H202.76V259.462H272.871V262.39Z" fill="#AEC3FF"/>
<path d="M267.374 275.467H202.76V272.539H267.374V275.467Z" fill="#AEC3FF"/>
<path d="M272.871 268.929H253.759V266H272.871V268.929Z" fill="#AEC3FF"/>
<path d="M248.463 268.929H202.76V266H248.463V268.929Z" fill="#AEC3FF"/>
<path d="M183.335 272.824L185.314 270.984C186.465 272.34 187.754 273.099 189.549 273.099C191.137 273.099 192.335 272.134 192.335 270.616C192.335 269.029 190.885 268.131 188.628 268.131H187.316L186.856 266.361L191.207 261.737H184.231V259.277H194.889V261.391L190.4 265.992C192.956 266.361 195.143 267.671 195.143 270.569C195.143 273.536 192.84 275.653 189.504 275.653C186.695 275.653 184.691 274.478 183.335 272.824Z" fill="#AEC3FF"/>
<path d="M195.954 274.629C195.954 274.063 196.412 273.603 196.978 273.603C197.545 273.603 198.005 274.063 198.005 274.629C198.005 275.195 197.545 275.653 196.978 275.653C196.412 275.653 195.954 275.195 195.954 274.629Z" fill="#AEC3FF"/>
<path d="M267.942 315.862C261.919 315.862 256.669 311.586 255.463 305.697C255.366 305.227 255.672 304.765 256.144 304.67C256.615 304.574 257.077 304.877 257.172 305.349C258.213 310.431 262.742 314.118 267.942 314.118C273.091 314.118 277.61 310.473 278.692 305.453C278.791 304.981 279.255 304.684 279.726 304.783C280.199 304.883 280.498 305.347 280.397 305.819C279.146 311.637 273.907 315.862 267.942 315.862Z" fill="#AEC3FF"/>
<path d="M256.294 301.739C256.241 301.739 256.185 301.733 256.127 301.723C255.655 301.631 255.345 301.173 255.438 300.701C256.594 294.737 261.852 290.406 267.943 290.406C273.794 290.406 278.875 294.362 280.3 300.026C280.415 300.494 280.132 300.966 279.664 301.084C279.197 301.2 278.723 300.917 278.607 300.451C277.379 295.563 272.993 292.15 267.943 292.15C262.686 292.15 258.148 295.886 257.151 301.033C257.07 301.45 256.705 301.739 256.294 301.739Z" fill="#AEC3FF"/>
<path d="M267.941 287.519C259.323 287.519 252.314 294.523 252.314 303.133C252.314 311.743 259.323 318.748 267.941 318.748C276.557 318.748 283.568 311.743 283.568 303.133C283.568 294.523 276.557 287.519 267.941 287.519ZM267.941 321.227C257.957 321.227 249.834 313.111 249.834 303.133C249.834 293.158 257.957 285.042 267.941 285.042C277.926 285.042 286.049 293.158 286.049 303.133C286.049 313.111 277.926 321.227 267.941 321.227Z" fill="#AEC3FF"/>
<path d="M271.529 302.014H264.357V300.868H271.529V302.014Z" fill="#AEC3FF"/>
<path d="M271.529 306.709H264.357V305.561H271.529V306.709Z" fill="#AEC3FF"/>
<path d="M273.221 304.281H262.665V303.133H273.221V304.281Z" fill="#AEC3FF"/>
<path d="M150.467 225.331C150.467 225.331 151.031 224.063 151.396 223.463C151.76 222.863 153.32 221.104 153.587 221.503C153.852 221.9 154.915 224.58 154.351 225.331C153.787 226.08 154.388 227.386 151.579 228.176L150.467 225.331Z" fill="#FFB27D"/>
<path d="M119.268 217.327C119.268 217.327 133.639 229.314 139.243 228.204C143.625 227.336 150.349 225.032 150.349 225.032L151.695 228.469C151.695 228.469 145.664 236.644 139.376 236.697C129.547 236.782 122.286 232.445 122.286 232.445L119.268 217.327Z" fill="#1D6DF7"/>
<path d="M94.0645 343.758C94.0645 343.758 94.4818 350.481 95.7836 350.577C95.9567 350.591 102.387 350.591 102.387 350.591L110.596 350.542C110.596 350.542 110.542 348.566 108.143 348.149C105.743 347.73 101.727 346.045 100.274 342.877C98.7445 339.543 94.0645 343.758 94.0645 343.758Z" fill="#1C4B8E"/>
<path d="M93.5914 344.224C93.5914 344.224 96.0867 345.058 98.0352 345.058C100.208 345.058 102.183 344.466 102.183 344.466C102.183 344.466 102.653 339.926 105.239 329.924C106.594 324.682 108.53 317.94 111.284 309.564C118.898 286.416 121.213 272.873 121.425 271.589C121.436 271.521 121.441 271.489 121.441 271.489L121.416 271.477L98.0067 261.208C98.0067 261.208 100.9 293.113 97.2085 305.359C96.6914 307.071 96.2486 309.065 95.8688 311.226C93.5374 324.529 93.5914 344.224 93.5914 344.224Z" fill="#FABC05"/>
<path d="M105.239 329.924C106.594 324.682 108.53 317.94 111.284 309.564C118.898 286.416 121.213 272.873 121.425 271.589C121.423 271.552 121.42 271.515 121.416 271.477L98.0066 261.208C98.0066 261.208 100.9 293.113 97.2084 305.359C96.6913 307.071 105.239 329.924 105.239 329.924Z" fill="#D6A000"/>
<path d="M112.348 343.758C112.348 343.758 112.766 350.481 114.068 350.577C114.241 350.591 120.671 350.591 120.671 350.591L128.88 350.542C128.88 350.542 128.826 348.566 126.427 348.149C124.027 347.73 120.011 346.045 118.558 342.877C117.028 339.543 112.348 343.758 112.348 343.758Z" fill="#1C4B8E"/>
<path d="M125.62 261.959C125.62 261.959 125.925 282.635 122.344 308.019C118.764 333.406 119.978 344.181 119.978 344.181C119.978 344.181 117.518 344.977 116.525 345.058C113.996 345.264 111.403 344.466 111.403 344.466C111.403 344.466 106.279 319.071 107.748 306.365C109.217 293.658 100.731 262.765 100.731 262.765L125.62 261.959Z" fill="#FABC05"/>
<path d="M109.022 213.577L113.591 216.57L117.753 215.394C118.514 214.309 118.715 212.22 118.727 210.408C118.738 208.611 118.563 207.087 118.563 207.087L112.398 204.368L110.098 203.357C110.104 203.392 110.277 205.244 110.302 205.514C110.731 210.315 109.022 213.577 109.022 213.577Z" fill="#FFB27D"/>
<path d="M125.725 267.708C120.038 273.194 98.5126 272.27 97.1861 266.226C95.8616 260.18 98.6327 214.763 108.348 211.91C110.364 211.318 121.143 214.798 121.143 214.798C121.143 214.798 122.834 219.22 123.943 224.849C124.158 225.944 124.787 237.549 125.257 248.408C125.477 253.485 125.662 258.402 125.757 262.002C125.844 265.372 125.848 267.588 125.725 267.708Z" fill="#4284F5"/>
<path d="M110.762 205.6C112.013 207.712 116.402 209.562 118.727 210.408C118.738 208.612 118.563 207.087 118.563 207.087L112.398 204.369C111.036 204.35 110.205 204.656 110.762 205.6Z" fill="#FCA56B"/>
<path d="M120.889 206.713C120.889 206.713 110.955 209.808 109.121 203.599C107.286 197.388 104.769 193.605 111.033 191.365C117.298 189.126 119.236 191.131 120.353 193.054C121.47 194.979 123.425 205.748 120.889 206.713Z" fill="#FFB27D"/>
<path d="M119.963 192.456C119.963 192.456 119.329 199.684 117.834 199.371C116.338 199.055 114.691 198.386 114.91 200.563C115.129 202.743 113.456 206.477 111.299 206.469C106.673 206.448 101.646 194.588 102.913 192.34C106.567 185.85 125.244 184.539 119.963 192.456Z" fill="#163560"/>
<path d="M118.501 212.067C118.373 212.012 111.107 208.756 110.257 209.037C109.407 209.316 108.348 211.91 108.348 211.91L121.143 214.8C121.143 214.8 120.136 212.755 118.501 212.067Z" fill="#216FF3"/>
<path d="M163.74 247.24L123.007 285.561C122.208 286.312 121.202 286.55 120.77 286.092L119.395 284.633C118.962 284.175 119.262 283.184 120.061 282.433L160.795 244.114C161.593 243.363 162.6 243.123 163.031 243.581L164.406 245.04C164.84 245.5 164.538 246.489 163.74 247.24Z" fill="#1F4D84"/>
<path d="M140.882 268.746L123.007 285.561C122.208 286.312 121.202 286.55 120.77 286.092L119.395 284.633C118.962 284.175 119.262 283.184 120.061 282.433L137.935 265.618L140.882 268.746Z" fill="#739AF0"/>
<path d="M163.504 203.329C170.534 195.862 180.553 192.885 189.96 194.513C195.443 195.461 200.716 197.971 205.07 202.065C216.899 213.184 217.465 231.776 206.337 243.595C202.239 247.948 197.131 250.771 191.72 252.053C182.426 254.251 172.245 251.892 164.771 244.863C152.942 233.744 152.373 215.15 163.504 203.329ZM154.377 232.771C155.942 237.922 158.838 242.745 163.044 246.697C175.885 258.768 196.093 258.152 208.174 245.323C220.097 232.657 219.653 212.834 207.296 200.714C207.133 200.551 206.966 200.39 206.795 200.231C193.956 188.158 173.75 188.77 161.669 201.603C153.542 210.233 151.158 222.193 154.377 232.771Z" fill="#1F4D84"/>
<path d="M164.956 245.036C164.893 244.979 164.832 244.922 164.771 244.863C160.139 240.51 157.235 235.014 156.082 229.224C159.398 232.246 162.599 235.408 164.956 238.259V245.036ZM157.738 212.234C159.064 209.031 160.984 206.005 163.504 203.329C163.974 202.83 164.459 202.35 164.956 201.89V212.156C164.08 212.13 163.168 212.116 162.227 212.116C160.787 212.116 159.282 212.15 157.738 212.234Z" fill="#CFE1F9"/>
<path d="M164.956 238.26C162.599 235.408 159.398 232.246 156.082 229.224C154.956 223.573 155.5 217.645 157.738 212.234C159.282 212.15 160.787 212.116 162.227 212.116C163.168 212.116 164.08 212.13 164.956 212.157V238.26Z" fill="#C8DCFB"/>
<path d="M172.691 250.193C171.017 249.43 169.398 248.497 167.86 247.401C166.856 246.684 165.885 245.897 164.956 245.036V238.259V212.156V201.89C165.133 201.727 165.31 201.566 165.489 201.408C167.693 199.464 170.123 197.907 172.691 196.735V250.193Z" fill="#93B5F5"/>
<path d="M184.911 252.846C184.361 252.846 183.811 252.83 183.261 252.8C179.644 252.598 176.056 251.731 172.691 250.193V196.735C176.559 194.969 180.738 194.082 184.923 194.082C186.608 194.082 188.294 194.226 189.96 194.515C194.249 195.256 198.41 196.951 202.103 199.615C203.129 200.355 204.121 201.172 205.07 202.065C206.363 203.28 207.522 204.584 208.547 205.962C210.461 208.536 211.901 211.357 212.866 214.303H202.76V217.232H213.661C213.917 218.424 214.101 219.629 214.209 220.842H202.76V223.77H214.325C214.312 224.975 214.227 226.182 214.066 227.38H202.76V230.309H213.522C212.369 235.13 209.98 239.727 206.337 243.595C202.239 247.948 197.131 250.771 191.72 252.053C189.485 252.582 187.198 252.846 184.911 252.846ZM198.451 228.557C197.872 228.557 197.404 229.025 197.404 229.603C197.404 230.18 197.872 230.651 198.451 230.651C199.029 230.651 199.5 230.18 199.5 229.603C199.5 229.025 199.029 228.557 198.451 228.557ZM189.634 216.546C191.141 216.546 192.294 217.488 192.294 219.11C192.294 220.59 191.469 221.648 189.211 223.55L183.543 228.369V230.651H195.445V228.111H187.612L190.999 225.29C193.893 222.893 195.28 221.507 195.28 218.921C195.28 215.935 193.07 213.961 189.846 213.961C186.907 213.961 185.353 215.207 183.779 217.417L185.824 219.014C187.094 217.37 188.129 216.546 189.634 216.546Z" fill="#D3E4FC"/>
<path d="M195.445 230.651H183.543V228.369L189.211 223.55C191.469 221.648 192.294 220.589 192.294 219.11C192.294 217.488 191.141 216.546 189.634 216.546C188.129 216.546 187.094 217.37 185.824 219.014L183.779 217.417C185.353 215.207 186.907 213.961 189.846 213.961C193.07 213.961 195.28 215.935 195.28 218.921C195.28 221.507 193.893 222.893 190.999 225.29L187.612 228.111H195.445V230.651Z" fill="#B1C9FC"/>
<path d="M198.451 230.651C197.873 230.651 197.404 230.18 197.404 229.602C197.404 229.025 197.873 228.556 198.451 228.556C199.029 228.556 199.5 229.025 199.5 229.602C199.5 230.18 199.029 230.651 198.451 230.651Z" fill="#B1C9FC"/>
<path d="M213.661 217.232H202.76V214.303H212.866C213.182 215.266 213.447 216.245 213.661 217.232Z" fill="#B1C9FC"/>
<path d="M213.522 230.309H202.76V227.38H214.066C213.934 228.363 213.752 229.34 213.522 230.309Z" fill="#B1C9FC"/>
<path d="M214.325 223.77H202.76V220.842H214.209C214.272 221.544 214.308 222.25 214.321 222.954C214.327 223.227 214.327 223.498 214.325 223.77Z" fill="#B1C9FC"/>
<path d="M184.915 252.846C184.363 252.846 183.813 252.83 183.261 252.8C183.811 252.83 184.361 252.846 184.911 252.846C187.198 252.846 189.486 252.582 191.72 252.053C197.131 250.771 202.239 247.948 206.337 243.595C209.981 239.727 212.37 235.13 213.522 230.309C213.752 229.34 213.934 228.363 214.066 227.38C214.227 226.182 214.313 224.975 214.325 223.77C214.327 223.498 214.327 223.227 214.321 222.954C214.451 230.343 211.807 237.787 206.337 243.595C202.241 247.948 197.131 250.773 191.72 252.053C189.486 252.582 187.2 252.846 184.915 252.846ZM167.86 247.401C166.789 246.635 165.756 245.791 164.771 244.863C152.942 233.744 152.373 215.15 163.504 203.331C164.141 202.653 164.805 202.012 165.49 201.408C165.31 201.566 165.133 201.727 164.956 201.89C164.459 202.35 163.974 202.83 163.504 203.329C160.984 206.005 159.064 209.031 157.738 212.234C155.5 217.645 154.956 223.573 156.082 229.224C157.235 235.014 160.139 240.51 164.771 244.863C164.832 244.922 164.893 244.979 164.956 245.036C165.885 245.897 166.856 246.684 167.86 247.401ZM208.547 205.962C207.522 204.584 206.363 203.28 205.07 202.065C204.121 201.172 203.129 200.356 202.103 199.615C203.129 200.356 204.121 201.172 205.07 202.063C206.363 203.28 207.522 204.584 208.547 205.962Z" fill="#698EBF"/>
<path d="M125.757 262.002C103.312 246.021 105.179 224.696 105.179 224.696C113.382 229.32 121.522 239.541 125.257 248.408C125.477 253.485 125.662 258.402 125.757 262.002Z" fill="#1F6FF8"/>
<path d="M147.909 254.723C149.492 254.358 150.555 253.164 150.777 252.954C150.777 252.954 151.451 253.001 150.665 254.44C150.599 254.56 150.453 254.869 150.343 255.087C150.298 255.176 150.361 255.28 150.461 255.288C151.373 255.358 152.292 254.995 154.052 255.364C154.294 255.413 154.365 255.995 154.355 256.243C154.341 256.66 154.371 257.13 153.883 257.773C153.599 258.148 152.809 258.548 151.048 259.257C150.375 259.527 148.457 259.324 146.658 258.707L145.222 258.042L145.667 255.374L146.028 255.449C146.601 255.569 147.311 254.869 147.909 254.723Z" fill="#FFB27D"/>
<path d="M112.144 214.8C112.144 214.8 91.9771 218.638 118.078 247.818C122.252 252.484 144.804 258.561 144.804 258.561C144.804 258.561 147.092 256.617 145.939 255.042C145.939 255.042 130.411 243.774 126.994 241.984C125.457 241.178 121.029 224 118.523 219.863C116.018 215.726 112.144 214.8 112.144 214.8Z" fill="#4284F5"/>
<path d="M151.013 225.685C151.013 225.685 151.673 224.425 151.801 223.76C151.929 223.097 152.76 221.159 153.103 220.817C153.241 220.681 153.691 220.858 153.744 221.444C153.768 221.701 153.642 222.165 153.42 222.718C153.06 223.62 153.119 224.843 152.995 225.252C152.683 226.267 151.013 225.685 151.013 225.685Z" fill="#FFB27D"/>
<path d="M217.619 341.074C217.619 341.416 217.639 341.756 217.682 342.087C217.814 343.149 218.141 344.151 218.629 345.05C219.013 345.752 219.496 346.393 220.058 346.953C221.565 348.457 223.641 349.387 225.94 349.387H342.953C347.548 349.387 351.276 345.665 351.276 341.074C351.276 338.778 350.346 336.699 348.837 335.195C347.33 333.689 345.251 332.759 342.953 332.759H225.94C221.345 332.759 217.619 336.481 217.619 341.074Z" fill="#2B478B"/>
<path d="M226.547 331.255H266.665C267.368 331.255 267.942 330.681 267.942 329.979C267.942 329.277 267.368 328.703 266.665 328.703H226.547C225.844 328.703 225.27 329.277 225.27 329.979C225.27 330.681 225.844 331.255 226.547 331.255Z" fill="#2B478B"/>
<path d="M228.763 332.761H233.111V331.255H228.763V332.761Z" fill="#233862"/>
<path d="M218.63 345.05C219.013 345.752 219.496 346.393 220.058 346.953C221.565 348.457 223.642 349.387 225.94 349.387H250.726V345.05H218.63Z" fill="#233862"/>
<path d="M366.762 338.638V343.508C366.762 344.041 366.692 344.56 366.557 345.05C365.883 347.549 363.598 349.387 360.88 349.387H238.992C236.277 349.387 233.992 347.549 233.317 345.05C233.185 344.56 233.11 344.041 233.11 343.508V338.638C233.11 335.392 235.745 332.759 238.992 332.759H360.88C364.13 332.759 366.762 335.392 366.762 338.638Z" fill="#FABC05"/>
<path d="M366.56 345.05C365.883 347.549 363.599 349.387 360.882 349.387H238.993C236.279 349.387 233.993 347.549 233.316 345.05H366.56Z" fill="#CB9F1C"/>
<path d="M354.66 341.104C354.66 343.687 355.6 345.994 357.079 347.523C357.114 347.557 357.146 347.59 357.177 347.624C358.322 348.764 359.775 349.446 361.355 349.446C363.823 349.446 369.937 345.726 373.727 343.255C375.615 342.024 376.927 341.104 376.927 341.104C376.927 341.104 375.615 340.182 373.727 338.951C369.937 336.479 363.823 332.758 361.355 332.758C360.641 332.758 359.953 332.899 359.305 333.155C358.216 333.593 357.249 334.366 356.484 335.38C355.642 336.493 355.042 337.893 354.79 339.448L354.782 339.503C354.702 340.018 354.66 340.555 354.66 341.104Z" fill="#8C9DF4"/>
<path d="M354.657 341.104C354.657 343.686 355.598 345.994 357.079 347.522L375.839 341.074L354.782 339.503C354.7 340.018 354.657 340.555 354.657 341.104Z" fill="#6980E2"/>
<path d="M356.482 335.38L375.198 340.486L359.304 333.156C358.214 333.593 357.246 334.367 356.482 335.38Z" fill="#9FB1FF"/>
<path d="M372.505 341.104C372.505 342.097 373.015 342.944 373.727 343.255C375.615 342.024 376.927 341.104 376.927 341.104C376.927 341.104 375.615 340.182 373.727 338.951C373.015 339.26 372.505 340.107 372.505 341.104Z" fill="#182D4C"/>
<path d="M405.698 189.108C402.597 187.502 400.115 188.511 400.115 188.511C390.63 187.398 387.865 198.45 387.993 202.252C388.118 206.055 388.555 210.139 384.322 215.078C372.087 229.348 397.708 229.979 397.708 229.979C397.925 218.577 411.605 222.738 411.004 223.892C428.537 228.096 412.746 192.762 405.698 189.108Z" fill="#163560"/>
<path d="M369.113 234.356C369.113 234.356 367.444 231.821 366.1 231.77C364.757 231.721 362.267 231.025 362.467 231.522C362.666 232.02 364.21 232.069 364.358 232.368C364.507 232.665 362.068 233.113 361.372 233.164C360.676 233.213 359.03 233.164 359.08 233.512C359.132 233.86 362.042 235.303 364.097 235.103C366.15 234.904 368.69 235.702 368.69 235.702L369.113 234.356Z" fill="#FFB27D"/>
<path d="M393.234 235.178C393.234 235.178 392.327 236.971 390.682 239.033C388.7 241.513 385.647 244.379 381.808 244.944C379.975 245.213 378.183 244.82 376.535 244.088H376.53C371.869 242.02 368.366 237.266 368.366 237.266C367.545 235.03 368.89 233.512 368.89 233.512C368.89 233.512 378.299 235.626 379.195 235.178C380.091 234.731 385.6 222.519 386.592 220.484C388.703 216.159 392.049 214.92 392.049 214.92L393.234 235.178Z" fill="#FABC05"/>
<path d="M390.682 239.033C388.701 241.513 385.645 244.379 381.809 244.944C379.976 245.213 378.182 244.82 376.536 244.088C376.72 244.112 381.373 244.688 383.228 241.371C385.121 237.989 387.164 232.616 389.976 234.407C391.189 235.18 391.134 237.099 390.682 239.033Z" fill="#D7A000"/>
<path d="M428.34 336.662C428.34 336.662 431.209 339.281 430.65 341.141C430.088 343.001 427.5 344.24 427.147 346.513C426.797 348.788 425.398 350.028 424.137 350.028C422.876 350.028 418.126 350.028 418.126 350.028C418.126 350.028 417.2 348.428 419.441 347.946C421.68 347.464 422.526 344.792 422.385 342.311C422.245 339.83 422.595 336.523 422.595 336.523L427.356 335.423L428.34 336.662Z" fill="#1C4B8E"/>
<path d="M404.037 337.773C404.037 337.773 405.069 348.864 403.808 349.484L387.679 349.452C387.679 349.452 387.679 347.592 390.27 347.179C392.858 346.763 397.412 345.249 398.181 341.873C398.954 338.497 404.037 337.773 404.037 337.773Z" fill="#1C4B8E"/>
<path d="M416.444 227.698C416.444 227.698 416.685 231.084 416.444 235.148C416.285 237.84 413.556 241.448 413.17 242.342C412.199 244.58 411.106 244.945 411.106 244.945L402.635 247.018L399.66 247.747L390.267 244.945C390.267 244.945 385.989 233.015 387.706 226.3C389.423 219.585 392.047 214.92 392.047 214.92C392.047 214.92 398.413 212.409 409.69 214.285L416.444 227.698Z" fill="#FABC05"/>
<path d="M413.966 236.247C413.805 238.941 413.557 241.448 413.173 242.342C412.202 244.58 411.106 244.945 411.106 244.945L402.635 247.018L398.959 245.938C398.959 245.938 411.236 244.078 409.878 233.522L413.966 236.247Z" fill="#F2CCAA"/>
<path d="M390.865 246.754C390.865 246.754 386.214 261.219 385.915 266.143C385.616 271.068 394.804 336.1 395.174 338.369C395.521 340.51 398.18 341.874 398.18 341.874C398.18 341.874 399.404 342.594 401.148 342.102C403.568 341.418 404.333 340.6 404.333 340.6C404.333 340.6 407.954 294.218 405.714 277.651C403.474 261.082 403.448 246.754 403.448 246.754H390.865Z" fill="#256EEA"/>
<path d="M410.568 246.325C410.568 246.325 417.661 255.834 418.322 262.262C418.983 268.693 419.36 291.275 420.772 297.543C422.18 303.811 427.355 315.872 427.355 335.423C427.355 335.423 426.818 336.542 425.154 337.138C424.626 337.33 423.912 337.515 423.221 337.673C421.851 337.987 420.445 337.317 419.82 336.06C416.321 329.018 405.171 306.31 404.598 301.597C404.195 298.26 400.675 276.182 392.995 263.225C391.154 260.116 394.128 247.747 394.128 247.747L410.568 246.325Z" fill="#4284F5"/>
<path d="M390.124 244.521C390.124 244.521 391.991 245.996 395.7 246.071C400.13 246.161 411.108 244.942 411.108 244.942C411.108 244.942 411.596 246.305 411.576 247.742C411.576 247.742 398.167 251.122 390.399 248.236C390.399 248.236 389.395 246.352 390.124 244.521Z" fill="#233862"/>
<path d="M394.635 245.984C393.888 245.984 393.283 246.709 393.283 247.6C393.283 248.491 393.888 249.218 394.635 249.218C395.379 249.218 395.985 248.491 395.985 247.6C395.985 246.709 395.379 245.984 394.635 245.984ZM394.635 249.887C393.522 249.887 392.611 248.862 392.611 247.6C392.611 246.341 393.522 245.315 394.635 245.315C395.749 245.315 396.657 246.341 396.657 247.6C396.657 248.862 395.749 249.887 394.635 249.887Z" fill="white"/>
<path d="M424.117 248.377L413.228 257.85C412.443 258.534 411.248 258.452 410.564 257.665L396.671 241.725C395.987 240.939 396.069 239.747 396.857 239.063L407.743 229.59C408.531 228.904 409.723 228.988 410.407 229.773L424.3 245.715C424.984 246.501 424.902 247.693 424.117 248.377Z" fill="#2B478B"/>
<path d="M408.008 247.181C407.854 247.223 402.223 247.883 402.223 249.045C402.223 250.39 403.874 252.189 405.429 252.105C406.059 252.071 408.963 249.403 408.963 249.403L408.008 247.181Z" fill="#FFB27D"/>
<path d="M405.119 213.668C404.477 212.117 404.106 209.752 404.114 206.828L403.689 206.912L396.542 208.326C396.542 208.326 396.703 210.575 396.709 212.691V212.744C396.715 214.584 395.464 216.429 398.417 217.16C399.328 217.386 406.463 216.928 405.119 213.668Z" fill="#FFB27D"/>
<path d="M396.539 208.326C396.539 208.326 396.703 210.575 396.705 212.692C400.707 212.58 402.822 208.933 403.688 206.912L396.539 208.326Z" fill="#E8945B"/>
<path d="M395.203 210.331C395.203 210.331 404.671 210.487 404.676 204.596C404.682 198.705 405.909 194.757 399.867 194.407C393.82 194.059 392.644 196.305 392.162 198.271C391.683 200.237 392.743 210.139 395.203 210.331Z" fill="#FFB27D"/>
<path d="M395.555 194.265C395.555 194.265 398.144 201.176 402.122 202.197C406.1 203.221 407.825 202.154 407.825 202.154C407.825 202.154 404.774 199.733 404.14 195.506C404.14 195.506 397.509 190.974 395.555 194.265Z" fill="#163560"/>
<path d="M396.195 194.824C396.195 194.824 394.273 195.543 393.482 196.943C392.708 198.312 392.051 200.127 392.203 202.352C392.203 202.352 390.25 197.655 392.445 194.995C394.772 192.178 396.195 194.824 396.195 194.824Z" fill="#163560"/>
<path d="M408.007 247.181C408.007 247.181 406.658 246.749 405.755 246.876C404.853 247.002 404.19 246.857 404.19 247.11C404.19 247.362 405.351 247.48 405.599 247.6C405.846 247.722 408.007 247.181 408.007 247.181Z" fill="#FFB27D"/>
<path d="M409.69 214.285C409.69 214.285 416.409 214.755 418.987 221.01C421.562 227.268 426.448 237.773 426.448 239.539C426.448 241.308 423.719 246.753 409.057 249.887C409.057 249.887 407.541 248.292 407.633 247.032C407.633 247.032 416.788 239.177 416.761 238.259C416.717 236.523 415.26 234.23 407.227 226.2C405.04 224.016 409.69 214.285 409.69 214.285Z" fill="#FABC05"/>
<path d="M182.27 28.2865C182.27 28.2865 176.879 27.3761 173.462 29.9561C170.042 32.5361 169.496 31.7013 167.568 33.2955C165.635 34.8896 167.613 36.7858 166.549 37.8493C165.486 38.9107 165.445 40.96 167.021 41.4907C168.6 42.0235 167.537 44.9077 170.955 45.2852C174.371 45.6649 172.84 47.2461 176.083 47.4877C179.323 47.7271 182.005 47.8393 183.715 48.5555C185.422 49.2695 186.97 48.5318 187.458 47.231C187.948 45.9323 189.315 47.6085 189.714 45.831C190.114 44.0534 188.689 43.3523 189.485 41.9092C190.284 40.4682 192.255 30.2215 182.27 28.2865Z" fill="#233862"/>
<path d="M191.593 131.674C191.221 132.108 191.176 132.588 191.365 133.099L191.369 133.107C191.72 134.053 192.862 135.103 194.188 136.153C194.357 136.288 194.508 136.41 194.64 136.524C194.675 136.552 194.71 136.583 194.742 136.613C194.769 136.636 194.793 136.66 194.82 136.682C196.058 137.806 195.596 138.068 197.822 140.352C200.359 142.952 202.092 142.987 202.585 142.745C203.001 142.539 202.143 141.155 201.192 139.603C201.145 139.527 201.101 139.45 201.054 139.375C200.928 139.169 200.801 138.96 200.675 138.75C199.561 136.88 199.838 135.997 200.078 133.199C200.276 130.925 203.526 120.482 203.526 120.482L198.693 119.684C198.693 119.684 197.298 127.993 195.708 129.281C194.854 129.969 193.897 129.985 193.076 130.496C193.019 130.531 192.962 130.567 192.907 130.604C192.441 130.917 191.966 131.241 191.593 131.674Z" fill="#FFB27D"/>
<path d="M191.593 131.674C191.221 132.108 191.176 132.588 191.365 133.099L191.369 133.107C191.797 134.051 192.911 135.097 194.192 136.143C194.361 136.28 194.508 136.406 194.64 136.524C194.675 136.552 194.71 136.583 194.742 136.613C194.769 136.636 194.793 136.66 194.82 136.682C196.058 137.806 195.596 138.068 197.822 140.352C200.359 142.952 202.093 142.987 202.585 142.745C203.001 142.539 202.143 141.155 201.192 139.603C200.702 139.426 198.416 138.518 196.679 136.328C195.15 134.405 194.119 131.927 193.076 130.496C193.019 130.531 192.962 130.567 192.907 130.604C192.441 130.917 191.966 131.241 191.593 131.674Z" fill="#233862"/>
<path d="M230.494 128.388C230.801 129.873 232.924 129.611 235.292 129.015C237.661 128.418 237.103 129.112 240.476 128.713C243.85 128.317 244.865 127.051 244.964 126.55C245.054 126.102 243.384 125.958 241.592 125.765C241.368 125.74 241.142 125.716 240.915 125.689C238.893 125.449 237.402 124.157 235.559 123.101C233.814 122.098 231.19 117.987 231.19 117.987L226.561 118.386C226.561 118.386 229.017 122.057 229.968 123.654C230.528 124.595 230.508 125.842 230.447 126.805C230.414 127.33 230.384 127.865 230.494 128.388Z" fill="#FFB27D"/>
<path d="M235.292 129.015C237.661 128.418 237.103 129.112 240.475 128.713C243.85 128.317 244.864 127.051 244.964 126.55C245.054 126.102 243.384 125.958 241.592 125.765L241.575 125.799C241.575 125.799 239.561 127.248 236.75 127.336C234.459 127.407 232.027 126.768 230.447 126.805C230.414 127.33 230.384 127.865 230.494 128.388C230.801 129.873 232.924 129.611 235.292 129.015Z" fill="#233862"/>
<path d="M212.536 98.923L208.288 110.594L202.744 125.834C202.744 125.834 201.211 125.993 199.74 125.579C198.384 125.199 196.826 124.187 196.826 124.187C196.826 124.187 198.28 107.859 201.141 98.4692C201.875 96.0597 202.701 94.1081 203.622 93.0072C208.123 87.6165 212.536 98.923 212.536 98.923Z" fill="#D29D00"/>
<path d="M208.003 80.4676C205.162 79.5742 197.08 80.8054 188.964 82.4517L187.243 79.6597L169.681 78.4143C169.681 78.4143 164.182 90.5693 167.208 99.444C167.795 101.166 170.608 101.227 170.608 101.227C170.608 101.227 180.897 101.339 184.288 101.316C193.017 101.255 202.72 95.1908 203.978 94.9283C206.04 94.503 206.893 98.6198 208.989 102.934C211.082 107.25 228.518 121.971 228.518 121.971C228.518 121.971 231.182 121.98 232.28 121.558C233.459 121.107 233.889 120.529 233.889 120.529C233.889 120.529 214.414 82.4843 208.003 80.4676Z" fill="#FABC05"/>
<path d="M181.709 52.6178C181.738 52.6363 178.642 53.717 176.561 52.8137C174.603 51.964 173.102 48.7674 173.131 48.7653C174.018 48.7179 174.988 47.9342 175.703 42.8403L176.082 42.9723L182.454 45.214C182.454 45.214 182.008 47.2557 181.723 49.1984C181.486 50.8277 181.36 52.3909 181.709 52.6178Z" fill="#FFB27D"/>
<path d="M182.455 45.2137C182.455 45.2137 182.182 46.6444 181.805 48.6895C178.149 48.0586 176.61 44.9416 176.082 42.9729L182.455 45.2137Z" fill="#ED975D"/>
<path d="M183.416 47.2314C183.416 47.2314 174.709 46.125 175.481 40.7189C176.254 35.3129 175.65 31.5291 181.24 32.0066C186.834 32.4841 187.614 34.699 187.796 36.5664C187.977 38.4337 185.699 47.3784 183.416 47.2314Z" fill="#FFB27D"/>
<path d="M187.459 33.607C187.459 33.607 181.927 38.4397 178.143 38.8536C174.359 39.2654 172.915 38.062 172.915 38.062C172.915 38.062 175.134 36.1951 176.456 33.1952C176.847 32.3119 177.677 31.7016 178.64 31.612C181.344 31.3602 186.469 31.2173 187.459 33.607Z" fill="#233862"/>
<path d="M183.977 33.2033C183.977 33.2033 185.853 34.9879 186.448 36.3194C187.023 37.6039 187.216 40.6837 186.773 41.9083C186.773 41.9083 189.635 36.251 187.973 33.5218C186.208 30.6301 183.977 33.2033 183.977 33.2033Z" fill="#233862"/>
<path d="M189.125 65.3678C188.985 82.9603 189.15 79.2831 187.237 80.966C186.775 81.371 185.471 81.6213 183.756 81.7455C178.359 82.1423 168.864 81.3201 168.496 80.325C167.227 76.8859 168.098 75.8073 167.021 70.5346C166.909 69.973 166.771 69.3665 166.61 68.7052C165.718 65.0849 164.864 63.8558 167.897 58.0072C170.646 52.7101 173.512 48.406 173.773 48.5587C181.158 52.8688 181.724 49.1977 181.724 49.1977C181.724 49.1977 189.192 56.7862 189.125 65.3678Z" fill="#4284F5"/>
<path d="M208.288 110.594L202.744 125.834C202.744 125.834 201.211 125.993 199.74 125.579C198.384 125.199 196.826 124.187 196.826 124.187C196.826 124.187 198.28 107.859 201.141 98.4692L208.288 110.594Z" fill="#FABC05"/>
<path d="M181.724 49.1977C181.724 49.1977 189.298 50.4248 190.211 53.6747C191.121 56.9225 196.486 76.021 196.486 76.021C196.486 76.021 192.644 76.7373 190.854 74.975C189.066 73.2127 184.555 58.5465 184.555 58.5465L181.724 49.1977Z" fill="#4284F5"/>
<path d="M183.756 81.7455C178.359 82.1423 168.864 81.3201 168.496 80.325C167.227 76.8859 168.099 75.8073 167.021 70.5346L169.573 63.1903C169.573 63.1903 169.2 71.3507 171.624 73.4793C174.044 75.6079 181.512 77.5533 182.695 79.338C183.266 80.1927 183.642 81.0536 183.756 81.7455Z" fill="#0A61F7"/>
<path d="M177.547 78.3593C177.547 78.3593 182.864 77.1362 183.726 77.6022C184.589 78.0682 186.701 79.7736 186.968 80.3699C187.237 80.9661 185.052 79.9283 184.343 79.7451C183.885 79.625 182.681 80.0524 182.084 80.2559C179.577 81.1106 178.033 80.6914 178.033 80.6914L177.547 78.3593Z" fill="#FFB27D"/>
<path d="M173.769 48.5547C173.769 48.5547 166.62 49.0451 164.17 52.5128C160.718 57.3947 153.952 78.1416 157.933 80.8725C162.416 83.9494 178.245 81.5441 178.245 81.5441C178.245 81.5441 178.756 79.0777 178.013 77.8913C177.272 76.7048 165.337 74.8652 164.783 74.3178C164.227 73.7724 171.583 63.5486 171.573 61.9002C171.561 60.2498 173.769 48.5547 173.769 48.5547Z" fill="#4284F5"/>
<path d="M183.995 79.0817C183.995 79.0817 185.121 80.5124 185.487 80.6813C185.854 80.8502 186.09 80.8054 186.09 80.8054L185.329 79.4582L183.995 79.0817Z" fill="#FFB27D"/>
<path d="M183.726 77.6022L186.982 79.1529C186.982 79.1529 186.846 79.3808 186.447 79.3645C186.046 79.3503 185.035 78.9881 185.035 78.9881L183.726 77.6022Z" fill="#FFB27D"/>
<path d="M184.793 83.0032L210.459 82.8221L218.044 63.5832L192.418 63.7643L184.793 83.0032Z" fill="#233862"/>
<path d="M210.754 82.0711L176.864 82.3113L176.868 83.0581L210.459 82.822L210.754 82.0711Z" fill="#233862"/>
<path d="M203.913 73.2758C204.101 72.6002 203.708 72.0569 203.031 72.0609C202.357 72.065 201.657 72.6165 201.469 73.2921C201.28 73.9677 201.673 74.5131 202.349 74.507C203.023 74.503 203.724 73.9515 203.913 73.2758Z" fill="#EBF3FA"/>
<path d="M54.2505 349.326H72.9795C73.9831 348.475 72.285 346.544 70.5106 346.414C69.7399 346.355 68.7656 346.517 67.652 346.751C67.3943 343.331 65.9224 327.956 60.3753 328.573C54.1382 329.265 60.3753 335.345 62.1387 338.943C63.4448 341.611 64.8224 345.433 65.4521 347.238C64.9456 347.348 64.4216 347.456 63.8859 347.553C63.0593 345.018 59.9833 336.487 56.0719 336.983C51.479 337.565 53.325 340.986 56.5804 343.015C58.9684 344.509 61.9012 346.631 63.2945 347.657C62.114 347.848 60.8817 347.979 59.6318 347.95C56.4236 347.873 54.8576 348.819 54.2505 349.326Z" fill="#A8D29F"/>
<path d="M459.606 349.283H438.882C437.771 348.341 439.652 346.204 441.615 346.062C442.468 345.996 443.546 346.176 444.778 346.434C445.061 342.651 446.69 325.639 452.828 326.322C459.727 327.087 452.828 333.815 450.878 337.795C449.433 340.746 447.909 344.977 447.212 346.973C447.772 347.093 448.351 347.211 448.943 347.321C449.856 344.515 453.261 335.077 457.589 335.626C462.67 336.271 460.628 340.054 457.025 342.301C454.384 343.953 451.142 346.302 449.599 347.435C450.903 347.649 452.268 347.791 453.649 347.759C457.201 347.675 458.935 348.721 459.606 349.283Z" fill="#A8D29F"/>
</svg>
